<svg width="515" height="650" viewBox="0 0 515 650" fill="none" xmlns="http://www.w3.org/2000/svg">
<path d="M97.3893 0C85.508 65.4557 49.9906 122.677 -0.000778198 162.5H63.3158C103.819 118.146 131.727 62.0926 141.379 0H97.3893Z" fill="#F6EEF1"/>
<path d="M97.3893 162.5C85.508 227.956 49.9906 285.177 -0.000778198 325H63.3158C103.819 280.646 131.727 224.593 141.379 162.5H97.3893Z" fill="#F6EEF1"/>
<path d="M97.3893 487.501C85.508 422.045 49.9906 364.824 -0.000778198 325.001H63.3158C103.819 369.355 131.727 425.408 141.379 487.501H97.3893Z" fill="#F6EEF1"/>
<path d="M268.768 0C256.887 65.4557 221.37 122.677 171.378 162.5H234.695C275.198 118.146 303.106 62.0926 312.758 0H268.768Z" fill="#F6EEF1"/>
<path d="M268.768 162.5C256.887 227.956 221.37 285.177 171.378 325H234.695C275.198 280.646 303.106 224.593 312.758 162.5H268.768Z" fill="#F6EEF1"/>
<path d="M268.768 487.501C256.887 422.045 221.37 364.824 171.378 325.001H234.695C275.198 369.355 303.106 425.408 312.758 487.501H268.768Z" fill="#F6EEF1"/>
<path d="M440.143 0C428.262 65.4557 392.745 122.677 342.753 162.5H406.07C446.573 118.146 474.481 62.0926 484.133 0H440.143Z" fill="#F6EEF1"/>
<path d="M440.143 162.5C428.262 227.956 392.745 285.177 342.753 325H406.07C446.573 280.646 474.481 224.593 484.133 162.5H440.143Z" fill="#F6EEF1"/>
<path d="M440.143 487.501C428.262 422.045 392.745 364.824 342.753 325.001H406.07C446.573 369.355 474.481 425.408 484.133 487.501H440.143Z" fill="#F6EEF1"/>
<path d="M97.3893 650.001C85.508 584.545 49.9906 527.324 -0.000778198 487.5H63.3158C103.819 531.855 131.727 587.908 141.379 650.001H97.3893Z" fill="#F6EEF1"/>
<path d="M268.768 650.001C256.887 584.545 221.37 527.324 171.378 487.5H234.695C275.198 531.855 303.106 587.908 312.758 650.001H268.768Z" fill="#F6EEF1"/>
<path d="M440.143 650.001C428.262 584.545 392.745 527.324 342.753 487.5H406.07C446.573 531.855 474.481 587.908 484.133 650.001H440.143Z" fill="#F6EEF1"/>
</svg>
