<svg width="275" height="194" viewBox="0 0 275 194" fill="none" xmlns="http://www.w3.org/2000/svg">
<path d="M137.454 0C61.5385 0 0 61.5385 0 137.454C0 213.37 61.5385 274.908 137.454 274.908C213.37 274.908 274.908 213.37 274.908 137.454C274.908 61.5385 213.37 0 137.454 0ZM208.425 208.883C203.022 213.645 194.872 212.18 190.842 206.136L176.465 184.615C167.857 171.703 153.48 164.011 138.004 164.011C122.527 164.011 108.059 171.703 99.5421 184.615L84.7985 206.685C80.7692 212.729 72.6191 214.194 67.2161 209.432C61.4469 204.304 62.0879 195.238 68.4066 191.026L90.3846 176.374C103.297 167.766 110.989 153.297 110.989 137.912C110.989 122.436 103.297 107.967 90.3846 99.4506L68.2234 84.707C62.1795 80.6777 60.7143 72.5275 65.4762 67.1245C70.5128 61.3553 79.6703 62.0879 83.8828 68.4066L98.5348 90.3846C107.143 103.297 121.52 110.989 136.996 110.989C152.473 110.989 166.941 103.297 175.458 90.3846L190.201 68.315C194.231 62.2711 202.381 60.8059 207.784 65.5678C213.553 70.696 212.912 79.7619 206.593 83.9744L184.615 98.6264C171.703 107.234 164.011 121.612 164.011 137.088C164.011 152.564 171.703 167.033 184.615 175.549L207.143 190.568C213.462 194.689 214.194 203.846 208.425 208.883Z" fill="#E2E7EC" fill-opacity="0.1"/>
</svg>
