<svg width="319" height="194" viewBox="0 0 319 194" fill="none" xmlns="http://www.w3.org/2000/svg">
<path d="M199.368 217.364C203.021 215.054 207.924 216.209 210.231 219.962L221.478 238.147C229.169 250.656 247.626 249.79 254.163 236.704L318.666 107.575C298.767 75.4374 288.578 58.8873 274.831 36.564C267.14 24.0553 248.683 24.9213 242.146 38.0074L233.879 54.5574C231.957 58.4062 227.246 60.042 223.305 58.1176C219.46 56.1931 217.825 51.4783 219.748 47.5332L229.938 27.1344C236.186 14.6256 227.15 0 213.211 0H68.5346L2.68517 131.727C-3.65945 144.332 5.76135 159.15 19.7964 158.861L41.6181 158.38C45.9439 158.284 49.5969 161.748 49.693 166.078C49.7892 170.408 46.3285 174.064 42.0026 174.16L22.3919 174.545C7.87622 174.834 -0.77553 190.807 6.81879 203.219C20.8539 225.927 31.0437 242.477 51.135 275H192.062C206.77 275 215.711 258.931 208.02 246.422L196.773 228.237C194.562 224.484 195.715 219.673 199.368 217.364Z" fill="#E2E7EC" fill-opacity="0.1"/>
</svg>
