<svg width="44" height="41" viewBox="0 0 44 41" fill="none" xmlns="http://www.w3.org/2000/svg">
<path d="M33.8636 40.2378H10.2817C6.74435 40.2378 3.40357 38.2727 1.63492 35.3249C-0.133725 32.3772 -0.133726 28.6434 1.83144 25.4991L13.6224 5.65092C16.3737 0.934526 22.4657 -0.44109 27.1821 2.31014C28.5577 3.09621 29.7368 4.27531 30.5229 5.65092L42.3139 25.4991C44.0825 28.4468 44.0825 32.1807 42.5104 35.3249C40.7417 38.2727 37.4009 40.2378 33.8636 40.2378ZM24.0378 26.4817V10.7604C24.0378 9.58125 23.2517 8.79519 22.0726 8.79519C20.8935 8.79519 20.1075 9.58125 20.1075 10.7604V26.4817C20.1075 27.6608 20.8935 28.4468 22.0726 28.4468C23.2517 28.4468 24.0378 27.6608 24.0378 26.4817ZM23.4483 33.7528C24.2343 32.9667 24.2343 31.7876 23.4483 31.0016C22.8587 30.412 22.0726 30.2155 21.2866 30.6085C21.0901 30.805 20.8935 30.805 20.697 31.0016C19.911 31.7876 19.911 32.9667 20.697 33.7528C20.8935 33.9493 21.0901 34.1458 21.2866 34.1458C21.4831 34.3423 21.8761 34.3423 22.0726 34.3423C22.6622 34.3423 23.0552 34.1458 23.4483 33.7528Z" fill="#052F60"/>
</svg>
