<svg width="30" height="36" viewBox="0 0 30 36" fill="none" xmlns="http://www.w3.org/2000/svg">
<path d="M18.3346 1.78271V8.66695C18.3346 9.60037 18.3346 10.0671 18.5163 10.4236C18.6761 10.7372 18.931 10.9922 19.2447 11.152C19.6012 11.3336 20.0679 11.3336 21.0013 11.3336H27.8855M21.668 19.6668H8.33464M21.668 26.3335H8.33464M11.668 13.0002H8.33464M18.3346 1.3335H9.66797C6.86771 1.3335 5.46757 1.3335 4.39802 1.87846C3.45721 2.35783 2.6923 3.12273 2.21294 4.06354C1.66797 5.1331 1.66797 6.53323 1.66797 9.3335V26.6668C1.66797 29.4671 1.66797 30.8672 2.21294 31.9368C2.6923 32.8776 3.45721 33.6425 4.39802 34.1219C5.46757 34.6668 6.86771 34.6668 9.66797 34.6668H20.3346C23.1349 34.6668 24.535 34.6668 25.6046 34.1219C26.5454 33.6425 27.3103 32.8776 27.7897 31.9368C28.3346 30.8672 28.3346 29.4671 28.3346 26.6668V11.3335L18.3346 1.3335Z" stroke="black" stroke-width="2" stroke-linecap="round" stroke-linejoin="round"/>
</svg>
