<svg width="189" height="41" viewBox="0 0 189 41" fill="none" xmlns="http://www.w3.org/2000/svg">
<g clip-path="url(#clip0_239_1805)">
<mask id="mask0_239_1805" style="mask-type:luminance" maskUnits="userSpaceOnUse" x="0" y="0" width="189" height="41">
<path d="M188.375 0.5H0.1875V40.5H188.375V0.5Z" fill="white"/>
</mask>
<g mask="url(#mask0_239_1805)">
<path d="M49.5837 1.93176H47.0781V11.5067H49.5837V1.93176Z" fill="#5EC5EE"/>
<path d="M49.5837 11.5067H47.0781V21.0816H49.5837V11.5067Z" fill="#2588C3"/>
<path d="M49.5837 21.1711H47.0781V30.7461H49.5837V21.1711Z" fill="#045D89"/>
<path d="M49.5837 30.7461H47.0781V40.321H49.5837V30.7461Z" fill="#E3EBF1"/>
<path d="M22.3809 19.9183C22.3809 19.9183 22.1124 19.6499 21.7545 19.6499C21.5755 19.6499 21.3071 19.7394 21.1281 19.8289L21.0386 19.9183C21.0386 19.9183 21.2176 20.9922 21.0386 21.4396C20.9491 21.7975 20.6807 22.1555 20.1438 22.1555C20.0543 22.1555 19.9648 22.1555 19.7858 22.066L20.1438 21.7975L20.2332 21.7081C20.2332 21.7081 20.2332 21.6186 20.1438 21.6186L19.3384 21.0817C19.6068 20.9027 19.6963 20.7237 19.7858 20.7237V20.6342V20.5447L19.6068 20.3658H19.5174H19.4279C19.4279 20.3658 19.2489 20.5447 18.891 20.7237L18.6225 20.5447L19.8753 19.7394L19.9648 20.0078L20.0543 20.0973C20.0543 20.0973 20.1438 20.0973 20.1438 20.0078L20.7702 18.934V18.8445L20.6807 18.755L19.5174 18.934C19.5174 18.934 19.4279 18.934 19.4279 19.0235V19.113L19.6068 19.2919L18.1751 20.2763L16.8328 19.2919L17.0118 19.113V19.0235C17.0118 19.0235 17.0118 18.934 16.9223 18.934L15.759 18.755C15.759 18.755 15.6695 18.755 15.6695 18.8445V18.934L16.2064 20.0078L16.2959 20.0973C16.2959 20.0973 16.3854 20.0973 16.3854 20.0078L16.4749 19.7394L17.7277 20.5447L17.4592 20.7237C17.1907 20.5447 16.9223 20.3658 16.9223 20.3658C16.9223 20.3658 16.9223 20.3658 16.8328 20.3658H16.7433L16.5643 20.5447V20.6342V20.7237C16.5643 20.7237 16.7433 20.9027 17.0118 21.0817L16.2064 21.6186L16.1169 21.7081C16.1169 21.7081 16.1169 21.7975 16.2064 21.7975L16.5643 22.066C16.4749 22.066 16.2959 22.1555 16.2064 22.1555C15.6695 22.1555 15.401 21.7975 15.3115 21.4396C15.2221 20.9922 15.3115 19.9183 15.3115 19.9183C15.3115 19.9183 15.3115 19.8289 15.2221 19.8289C15.0431 19.7394 14.7746 19.6499 14.5957 19.6499C14.2377 19.6499 13.9693 19.9183 13.9693 19.9183C13.9693 19.9183 13.9693 19.9183 13.9693 20.0078C13.9693 20.0973 13.8798 21.6186 14.5062 22.3345C14.7746 22.6029 15.1326 22.7819 15.4905 22.7819C15.58 22.7819 15.6695 22.7819 15.6695 22.7819C16.0274 22.6924 16.4749 22.6029 16.8328 22.5134L17.4592 22.9609L16.0274 23.9452L15.9379 24.0347C15.9379 24.0347 15.9379 24.1242 16.0274 24.1242L17.4592 25.1085L16.2064 25.9139L16.1169 25.6454L16.0274 25.5559C16.0274 25.5559 15.9379 25.5559 15.9379 25.6454L15.401 26.7192V26.8087L15.4905 26.8982L16.6538 26.7192C16.6538 26.7192 16.7433 26.7192 16.7433 26.6298V26.5403L16.5643 26.3613L17.9961 25.377L19.4279 26.3613L19.5174 26.4508V26.5403L19.6068 26.6298L20.7702 26.8087C20.7702 26.8087 20.8596 26.8087 20.8596 26.7192V26.6298L20.2332 25.5559L20.1438 25.4664C20.0543 25.4664 20.0543 25.4664 20.0543 25.5559L19.9648 25.8244L18.712 25.019L20.1438 24.0347L20.2332 23.9452C20.2332 23.9452 20.2332 23.8557 20.1438 23.8557L18.8015 22.8714L19.4279 22.4239C19.7858 22.6029 20.1438 22.6924 20.5912 22.6924C20.6807 22.6924 20.7702 22.6924 20.7702 22.6924C21.2176 22.6924 21.486 22.5134 21.7545 22.245C22.5599 21.5291 22.3809 20.0078 22.3809 19.9183ZM18.354 20.9922L18.6225 21.1711C18.533 21.2606 18.4435 21.2606 18.354 21.3501C18.2646 21.2606 18.1751 21.2606 18.0856 21.1711L18.354 20.9922ZM17.1907 21.7975L17.6382 21.5291C17.7277 21.6186 17.8171 21.6186 17.9066 21.7081C17.7277 21.7975 17.5487 21.887 17.3697 21.9765L17.1907 21.7975ZM19.4279 23.9452L18.354 24.6611L17.1907 23.9452L18.2646 23.2293L19.4279 23.9452ZM18.354 22.5134L17.8171 22.1555C17.9961 22.066 18.1751 21.9765 18.354 21.887C18.533 21.9765 18.712 22.066 18.891 22.1555L18.354 22.5134ZM19.2489 21.887C19.0699 21.7975 18.891 21.7081 18.712 21.6186C18.8015 21.5291 18.891 21.5291 18.9804 21.4396L19.4279 21.7081L19.2489 21.887Z" fill="#706F6F"/>
<path d="M22.7383 20.8132C22.7383 20.7237 22.8278 20.5447 22.8278 20.5447H22.7383V20.8132Z" fill="#706F6F"/>
<path d="M36.519 17.0548C36.0715 16.7863 35.3556 16.6969 34.5503 16.7863C35.7136 16.3389 36.519 15.5335 36.6084 14.7282C35.982 14.5492 35.3556 14.6387 34.8187 14.7282C35.3556 14.2808 36.34 13.4754 36.2505 12.4016C35.7136 12.2226 34.6398 12.67 34.2818 12.849C35.6241 12.0436 36.161 10.2539 35.4451 9.26957C34.9977 9.53802 33.1185 11.5067 32.7606 11.7752C33.7449 10.6118 34.1923 9.80648 34.5503 9.00111C34.9082 8.19574 34.9082 6.67449 33.8344 6.22706C33.2975 7.39037 31.5973 10.2539 30.7024 11.4172C30.6129 11.3277 30.5234 11.2382 30.3445 11.1488C30.076 11.8646 29.4496 12.849 28.8232 13.2964C28.8232 13.2069 28.7337 13.028 28.6442 12.849C28.0178 13.8333 26.3176 15.1756 25.6912 15.981C25.2438 16.6074 25.2438 17.1443 25.8702 17.6812C26.1386 17.9497 26.5861 18.3076 26.1386 18.934C25.6017 19.7394 24.5279 19.8289 23.9015 19.3814C23.9015 19.2025 23.9015 19.113 23.9015 19.0235C24.6174 18.755 24.7964 17.7707 24.2594 17.2338C24.17 17.4127 23.991 17.5917 23.7225 17.6812C23.633 17.4127 23.6331 17.3233 23.6331 17.3233V17.2338H23.5436C23.5436 17.2338 23.2751 17.2338 23.0067 17.1443C23.3646 17.0548 23.6331 16.6969 23.5436 16.1599C22.9172 16.6969 22.3803 16.1599 22.2013 16.0705C21.8433 15.623 21.7539 15.1756 21.8433 14.3702C21.9328 13.7438 22.6487 12.67 23.0961 12.3121C23.1856 12.4016 23.2751 12.491 23.4541 12.491C23.5436 12.491 23.812 12.3121 23.991 12.3121C24.4384 12.1331 24.8858 12.3121 25.1543 12.491C25.6912 12.7595 25.6017 13.1174 25.6017 13.3859C26.4071 12.9385 26.1386 12.2226 25.0648 11.9541C25.7807 11.9541 26.3176 12.5805 26.4966 12.67C26.8545 12.9385 27.4809 12.849 27.7494 12.7595C28.3758 12.491 28.4653 11.7752 28.2863 11.5962C28.1968 11.8646 28.0178 12.1331 27.6599 12.1331C27.123 12.2226 26.5861 11.9541 26.2281 11.7752C25.8702 11.5962 25.3333 11.5067 24.9753 11.5067C25.6912 11.1488 26.765 11.1488 27.123 11.7752C27.3914 11.5962 27.4809 11.4172 27.5704 11.0593C27.7494 9.98545 26.944 9.44854 26.0492 9.44854C26.0492 9.18008 25.8702 9.0906 25.6912 9.18008C25.6912 9.0906 25.6912 9.00111 25.6017 8.91162H25.6912C26.5861 8.82214 27.3914 8.55368 27.8389 8.10626C28.6442 7.30089 27.3914 6.22706 27.8389 5.42169C28.2863 5.60066 28.5548 5.86912 29.1812 5.95861C29.2706 6.04809 29.2706 6.31655 29.3601 6.49552C29.5391 7.39037 28.6442 7.56934 28.9127 8.55368C29.0022 9.00111 29.3601 9.18008 29.4496 9.717C29.4496 9.717 29.4496 10.0749 29.1812 10.4329C29.897 10.4329 30.3445 9.80648 30.076 9.18008C29.9865 8.91163 29.7181 8.73265 29.7181 8.4642C30.076 9.00111 30.4339 9.00111 31.0603 8.73265C31.3288 8.64317 31.3288 9.00111 31.1498 9.35905C31.4183 9.0906 31.5078 8.64317 31.5078 8.4642C31.5078 8.01677 31.1498 7.8378 30.8814 7.92729C30.7024 7.92729 30.3445 8.19574 30.3445 7.8378C30.255 7.2114 31.2393 7.30089 31.0603 6.31655C30.9709 5.86912 30.4339 5.60066 29.6286 5.51118C29.5391 5.42169 29.3601 5.24272 29.1812 5.06375C28.7337 4.34787 28.2863 4.07941 27.9284 4.25838C27.5704 4.43735 27.3914 4.52684 27.123 4.70581C26.944 4.79529 26.6756 4.88478 26.4966 5.06375C26.1386 5.51118 26.4966 6.22706 26.6756 6.67449C26.765 6.94295 27.123 7.47986 26.944 7.92729C26.765 8.4642 25.9597 8.73265 25.4228 8.91162H25.3333V8.64317C25.5122 8.37471 25.6017 8.10626 25.6912 7.74832C26.0492 6.85346 25.5122 6.49552 24.7964 6.31655C24.7069 6.22706 24.6174 6.22706 24.4384 6.31655V6.49552H24.3489V6.31655C24.4384 6.22706 24.4384 6.13758 24.4384 6.04809C24.4384 5.95861 24.4384 5.86912 24.3489 5.77963H24.4384C24.4384 5.77963 24.3489 5.69015 24.3489 5.60066V5.51118C24.3489 5.51118 24.3489 5.51118 24.4384 5.60066L24.5279 5.69015H24.6174V4.79529L24.5279 4.88478L24.4384 4.97427C24.3489 4.97427 24.3489 4.97427 24.2594 4.97427C24.2594 4.97427 24.2594 4.97427 24.2594 4.88478C24.3489 4.88478 24.3489 4.79529 24.3489 4.70581V4.61632H23.4541V4.70581C23.4541 4.70581 23.5436 4.79529 23.6331 4.88478C23.6331 4.88478 23.633 4.97427 23.7225 4.97427C23.7225 4.97427 23.6331 4.97427 23.6331 4.88478C23.5436 4.88478 23.5436 4.79529 23.4541 4.79529V4.70581V5.60066C23.4541 5.60066 23.5436 5.51118 23.6331 5.51118C23.6331 5.51118 23.7225 5.51118 23.7225 5.42169C23.7225 5.42169 23.7225 5.51118 23.6331 5.51118C23.6331 5.60066 23.5436 5.60066 23.4541 5.69015H23.6331C23.5436 5.77963 23.5436 5.86912 23.5436 5.95861C23.5436 6.04809 23.5436 6.13758 23.6331 6.22706V6.40603H23.5436V6.22706C23.4541 6.22706 23.2751 6.22706 23.2751 6.22706C22.4697 6.40603 22.0223 6.76397 22.2908 7.65883C22.3803 7.92729 22.5592 8.28523 22.6487 8.55368V8.73265C22.0223 8.55368 20.5905 7.65883 20.2326 7.2114C20.2326 7.12192 20.1431 7.12192 20.1431 7.12192V6.585C20.4116 6.13758 20.68 5.60066 20.859 5.06375C21.3064 3.72147 20.5905 3.18456 19.5167 2.9161C19.4272 2.82661 19.2483 2.82661 19.0693 2.82661V3.00559H18.8008V2.73713H18.7113C18.8903 2.64764 18.9798 2.46867 18.9798 2.2897C18.9798 2.11073 18.8903 1.93176 18.8008 1.84227H18.9798C18.8903 1.75279 18.7113 1.48433 18.6219 1.39485C18.8008 1.39485 18.9798 1.6633 19.0693 1.75279V0.589478C18.9798 0.678964 18.7113 0.857934 18.6219 0.857934C18.6219 0.768449 18.8008 0.499993 18.9798 0.410507H17.906C17.9955 0.499993 18.1744 0.768449 18.1744 0.857934C18.085 0.857934 17.8165 0.589478 17.727 0.589478V1.6633C17.8165 1.57382 17.9955 1.39485 18.1744 1.39485C18.1744 1.57382 17.906 1.75279 17.906 1.84227H18.085C17.9955 1.93176 17.906 2.11073 17.906 2.2897C17.906 2.46867 17.9955 2.73713 18.1744 2.73713C18.1744 2.73713 18.085 2.73713 17.9955 2.73713V3.00559H17.727V2.82661C17.548 2.73713 17.3691 2.82661 17.2796 2.9161C16.1163 3.09507 15.4004 3.63198 15.9373 4.97427C16.1163 5.51118 16.3847 6.04809 16.6532 6.49552V7.03243C16.6532 7.03243 16.6532 7.12192 16.5637 7.12192C16.2058 7.65883 14.774 8.4642 14.0581 8.73265V8.64317C14.2371 8.37471 14.3266 8.10626 14.416 7.74832C14.774 6.85346 14.2371 6.49552 13.4317 6.31655C13.3422 6.22706 13.2527 6.22706 13.1633 6.31655V6.49552H13.0738V6.31655C13.1632 6.22706 13.1633 6.13758 13.1633 6.04809C13.1633 5.95861 13.1632 5.86912 13.0738 5.77963H13.1633C13.1633 5.77963 13.0738 5.69015 13.0738 5.60066L12.9843 5.51118C12.9843 5.51118 13.0738 5.51118 13.0738 5.60066C13.1632 5.60066 13.1633 5.69015 13.2527 5.69015V4.79529V4.88478C13.2527 4.88478 13.1632 4.97427 13.0738 4.97427C13.0738 4.97427 12.9843 4.97427 12.9843 5.06375C12.9843 5.06375 13.0738 5.06375 13.0738 4.97427C13.0738 4.97427 13.1633 4.88478 13.1633 4.79529V4.70581H12.2684V4.79529C12.2684 4.79529 12.3579 4.88478 12.3579 4.97427L12.4474 5.06375C12.4474 5.06375 12.4474 5.06375 12.3579 4.97427C12.2684 4.97427 12.2684 4.88478 12.1789 4.88478L12.0894 4.79529V5.69015H12.1789C12.1789 5.69015 12.2684 5.60066 12.3579 5.60066C12.3579 5.60066 12.4474 5.60066 12.4474 5.51118C12.4474 5.51118 12.4474 5.60066 12.3579 5.60066C12.3579 5.69015 12.2684 5.69015 12.2684 5.77963H12.3579C12.2684 5.86912 12.2684 5.95861 12.2684 6.04809C12.2684 6.13758 12.2684 6.22706 12.4474 6.31655V6.49552H12.3579V6.31655C12.2684 6.31655 12.0894 6.31655 12.0894 6.31655C11.2841 6.49552 10.8366 6.85346 11.1051 7.74832C11.1946 8.01677 11.3735 8.37471 11.463 8.64317V8.82214H11.3735C10.8366 8.73265 10.0313 8.37471 9.85229 7.8378C9.67332 7.39037 10.0313 6.85346 10.1207 6.585C10.2997 6.13758 10.6577 5.42169 10.2997 4.97427C10.1207 4.79529 9.94177 4.70581 9.67332 4.61632C9.40486 4.43735 9.22589 4.34787 8.86795 4.1689C8.59949 4.07941 8.15206 4.25838 7.61515 5.06375C7.52567 5.24272 7.3467 5.42169 7.25721 5.51118C6.36236 5.60066 5.91493 5.86912 5.73596 6.31655C5.55699 7.30089 6.54133 7.30089 6.45184 7.92729C6.45184 8.28523 6.0939 8.01677 5.91493 8.01677C5.55699 7.92729 5.28853 8.10626 5.28853 8.4642C5.28853 8.64317 5.37802 9.00111 5.82544 9.26957C5.55699 9.00111 5.64647 8.64317 5.91493 8.73265C6.54133 8.91163 6.80978 8.91162 7.25721 8.4642C7.25721 8.73265 6.98875 9.00111 6.89927 9.18008C6.63081 9.80648 7.07824 10.4329 7.79412 10.4329C7.43618 10.0749 7.52567 9.717 7.52567 9.717C7.61515 9.18008 7.97309 9.00111 8.06258 8.55368C8.24155 7.56934 7.34669 7.39037 7.52567 6.49552C7.52567 6.31655 7.61515 6.13758 7.61515 5.95861C8.24155 5.86912 8.59949 5.60066 9.04692 5.42169C9.49435 6.22706 8.24155 7.30089 9.04692 8.10626C9.49435 8.55368 10.2997 8.82214 11.1946 8.91162H11.2841C11.1946 8.91162 11.1946 9.00111 11.1946 9.18008C10.9261 9.0906 10.7471 9.18008 10.8366 9.44854C9.94177 9.44854 9.1364 9.98545 9.31538 11.0593C9.40486 11.4172 9.49435 11.5962 9.7628 11.7752C10.1207 11.1488 11.1946 11.1488 11.9105 11.5067C11.5525 11.5067 10.9261 11.5962 10.6577 11.7752C10.2997 11.9541 9.7628 12.2226 9.22589 12.1331C8.86795 12.1331 8.68898 11.8646 8.59949 11.5962C8.42052 11.7752 8.59949 12.491 9.22589 12.7595C9.49435 12.9385 10.1207 12.9385 10.4787 12.67C10.6577 12.5805 11.1946 11.9541 11.9105 11.9541C10.9261 12.2226 10.5682 12.9385 11.3735 13.3859C11.3735 13.1174 11.2841 12.7595 11.821 12.491C12.0894 12.3121 12.5369 12.2226 12.9843 12.3121C13.1633 12.4016 13.3422 12.491 13.4317 12.491C13.6107 12.491 13.7896 12.4016 13.7896 12.3121C14.2371 12.67 14.8635 13.6544 15.0424 14.3702C15.2214 15.0861 15.0424 15.623 14.6845 16.0705C14.595 16.2494 13.9686 16.6969 13.3422 16.1599C13.2527 16.6074 13.5212 16.9653 13.8791 17.1443C13.5212 17.1443 13.3422 17.2338 13.2527 17.2338H13.1633V17.3233C13.1633 17.3233 13.0738 17.4127 13.0738 17.6812C12.8948 17.5917 12.7158 17.4127 12.5369 17.2338C11.9999 17.8602 12.1789 18.755 12.8948 19.0235C12.8948 19.113 12.8948 19.2919 12.8948 19.4709C12.2684 19.9183 11.1946 19.8289 10.6577 19.0235C10.2102 18.3971 10.7471 18.0391 10.9261 17.7707C11.5525 17.2338 11.5525 16.6074 11.1051 16.0705C10.5682 15.2651 8.86795 13.9228 8.15206 12.9385C8.24155 13.028 8.15206 13.2069 8.15206 13.2964C7.52567 12.849 6.80978 11.8646 6.63081 11.1488C6.54133 11.1488 6.45184 11.3277 6.27287 11.4172C5.28853 10.2539 3.58831 7.30089 3.14088 6.22706C2.06705 6.67449 2.06705 8.10626 2.42499 8.91162C2.69345 9.71699 3.14088 10.5224 4.12522 11.6857C3.85676 11.4172 1.88808 9.44854 1.44065 9.18008C0.724771 10.1644 1.1722 12.0436 2.60397 12.7595C2.15654 12.5805 1.1722 12.2226 0.635286 12.3121C0.5458 13.4754 1.44065 14.2808 2.06705 14.6387C1.53014 14.5492 0.903742 14.4597 0.277344 14.6387C0.277344 15.4441 1.1722 16.3389 2.24602 16.6969C1.53014 16.6074 0.814257 16.6969 0.366829 16.9653C0.456315 17.7707 1.35117 18.4866 2.51448 18.6655C1.7986 18.755 1.08271 19.113 0.814256 19.5604C1.26168 20.0973 1.7986 20.5447 2.69345 20.4552C2.51448 20.5447 2.24602 20.6342 2.06705 20.9027H1.97757C1.88808 20.9027 1.88808 20.9922 1.88808 20.9922C1.7986 21.0816 1.70911 21.1711 1.70911 21.1711C1.61963 21.2606 1.53014 21.4396 1.53014 21.5291C1.53014 21.5291 1.53014 21.5291 1.61963 21.5291C1.61963 21.6186 1.61963 21.708 1.70911 21.708C1.70911 21.708 1.61963 21.7975 1.61963 21.887L1.08271 21.708C1.08271 22.1555 1.1722 22.6029 1.44065 22.8714C1.61963 23.0503 1.88808 23.0503 1.7986 23.1398L2.33551 23.4978C2.425 23.6767 2.60397 23.6767 2.78294 23.6767C2.78294 23.9452 2.96191 24.1242 3.14088 24.1242C3.14088 24.3031 3.14088 24.3926 3.40934 24.4821L5.55699 29.7617C5.4675 30.0302 5.55699 30.2092 5.73596 30.2986C5.55699 30.5671 5.55699 30.6566 5.55699 30.7461C5.64647 30.6566 5.73596 30.6566 5.82544 30.8356C5.82544 30.925 5.64647 31.3725 6.00441 31.6409C5.91493 31.9094 6.0939 32.0884 6.36236 32.2673C6.36236 32.3568 6.45184 32.8042 6.54133 32.9832C6.36236 33.1622 6.00441 33.5201 6.0939 33.8781C6.0939 34.1465 6.27287 34.236 6.45184 34.3255C6.36236 34.7729 6.63081 35.0414 6.98875 35.0414C6.98875 35.3993 7.34669 35.4888 7.52567 35.4888C7.70464 35.6678 7.79412 35.6678 8.06258 35.8467C7.88361 36.1152 7.97309 36.3837 8.42052 36.5626C8.42052 36.7416 8.59949 36.8311 8.77846 36.9206C8.86795 37.0995 9.1364 37.0995 9.22589 37.0995C9.31538 37.0995 9.49435 36.8311 9.31538 36.5626C9.40486 36.4731 9.31538 36.2942 9.31538 36.1152C9.40486 35.8467 9.31538 35.5783 9.1364 35.4888C9.1364 35.3993 9.1364 35.1309 9.04692 35.0414C9.31538 34.8624 9.7628 34.5939 9.85229 34.5045C10.5682 33.9676 11.463 33.5201 12.3579 33.4306C12.6263 33.4306 13.0738 33.4306 13.3422 33.4306C13.7002 33.4306 14.2371 33.6096 14.595 33.3412C14.6845 33.2517 14.774 33.1622 14.774 33.0727C14.774 32.8042 14.5055 32.6253 14.416 32.4463C14.416 32.3568 14.3266 32.2673 14.3266 32.1778C14.595 32.2673 14.8635 32.1778 15.0424 32.0884C15.2214 31.9989 15.5794 31.7304 15.5794 31.283C15.2214 31.462 14.5055 31.6409 14.416 30.8356C14.3266 30.1197 14.953 29.5828 15.9373 29.7617C16.5637 29.9407 17.548 31.283 16.6532 31.9094C16.2058 32.1778 15.5794 32.4463 15.6688 33.2517C15.9373 32.8937 16.2952 32.7148 16.8322 32.8042C16.1163 33.3412 15.5794 33.4306 14.774 33.7886C14.1476 34.1465 13.6107 34.7729 13.0738 34.8624C12.7158 34.8624 12.4474 34.415 12.8053 34.057C12.4474 33.9676 11.9105 34.236 11.7315 34.6834C11.5525 35.2203 11.7315 35.6678 11.9999 35.8467C11.5525 36.1152 11.1946 36.5626 11.3735 37.2785C11.5525 37.8154 12.0894 37.8154 11.9105 38.6208C12.2684 38.5313 12.4474 38.3523 12.5369 37.9944C12.5369 37.8154 12.6263 37.547 12.7158 37.4575C12.6263 37.9049 12.8948 38.5313 13.5212 38.7998C13.9686 38.9787 14.595 39.0682 15.0424 38.5313C15.2214 39.0682 15.9373 39.6051 16.6532 39.6051C17.0111 39.6051 17.2796 39.4262 17.548 39.3367C17.727 39.7841 18.1744 40.2315 18.5324 40.4105C18.9798 40.2315 19.4272 39.7841 19.6062 39.3367C19.8747 39.5157 20.1431 39.6051 20.5011 39.6051C21.2169 39.6051 21.9328 39.1577 22.1118 38.5313C22.5592 39.0682 23.2751 38.9787 23.6331 38.7998C24.2594 38.5313 24.4384 37.8154 24.4384 37.4575C24.5279 37.547 24.6174 37.8154 24.6174 37.9944C24.7069 38.2629 24.8858 38.5313 25.2438 38.6208C25.0648 37.9049 25.6017 37.9049 25.7807 37.2785C25.9597 36.5626 25.6017 36.1152 25.1543 35.8467C25.5122 35.6678 25.6912 35.2203 25.4228 34.6834C25.2438 34.236 24.7964 33.9676 24.3489 34.057C24.7069 34.415 24.5279 34.8624 24.0805 34.8624C23.5436 34.8624 23.0961 34.236 22.3803 33.7886C21.6644 33.3412 21.038 33.3412 20.3221 32.8042C20.7695 32.8042 21.2169 32.8937 21.4854 33.2517C21.5749 32.4463 20.9485 32.1778 20.5011 31.9094C19.6062 31.283 20.5905 29.9407 21.2169 29.7617C22.2013 29.4933 22.8277 30.1197 22.7382 30.8356C22.6487 31.6409 21.8433 31.462 21.4854 31.283C21.4854 31.7304 21.9328 31.9989 22.0223 32.0884C22.2013 32.1778 22.5592 32.2673 22.9172 32.0884C22.9172 32.1778 22.9172 32.2673 22.9172 32.2673C22.8277 32.9832 22.4697 32.9832 22.6487 33.2517C22.8277 33.4306 23.991 33.4306 24.3489 33.5201C24.8858 33.6096 25.3333 33.7886 25.8702 33.8781C26.4966 33.9676 27.123 33.9676 27.6599 34.236C28.0178 34.415 28.3758 34.6834 28.7337 34.8624C29.2706 34.9519 29.1812 35.1309 29.4496 35.1309C29.7181 35.1309 29.897 34.8624 30.255 34.7729C30.5234 34.6834 30.7919 34.7729 31.0603 34.7729C31.2393 34.7729 31.3288 34.5045 31.5078 34.415C31.6867 34.3255 32.0447 34.3255 32.2237 34.1465C32.3131 34.057 32.3131 33.8781 32.3131 33.7886C32.6711 33.5201 33.029 33.0727 33.208 32.6253C33.2975 32.6253 33.387 32.5358 33.387 32.4463C33.4765 32.3568 33.5659 32.2673 33.5659 32.0884C33.5659 31.9094 33.4765 31.8199 33.387 31.7304C33.387 31.6409 33.387 31.5514 33.2975 31.5514C33.1185 30.6566 32.4026 29.9407 31.5078 29.6722C31.5078 29.6722 31.5078 29.5828 31.4183 29.5828C31.3288 29.4933 31.1498 29.2248 31.1498 29.1353C31.3288 29.1353 31.5078 29.4038 31.6867 29.4933V28.33C31.5973 28.4195 31.3288 28.6879 31.1498 28.6879C31.1498 28.5089 31.4183 28.2405 31.5078 28.151H30.255C30.3445 28.2405 30.6129 28.5089 30.6129 28.6879C30.4339 28.6879 30.255 28.4195 30.076 28.33V29.4933C30.1655 29.4038 30.4339 29.1353 30.6129 29.1353C30.6129 29.3143 30.3445 29.5828 30.255 29.6722C29.3601 29.8512 28.6442 30.6566 28.4653 31.5514C28.3758 31.6409 28.3758 31.6409 28.3758 31.7304C28.2863 31.8199 28.1968 31.9989 28.1968 32.0884C28.1968 32.1778 28.2863 32.3568 28.3758 32.4463C28.3758 32.6253 28.4653 32.6253 28.5548 32.6253C28.5548 32.7148 28.6442 32.8937 28.7337 32.9832C28.6442 33.3412 28.1968 33.5201 28.1073 33.5201C27.3914 33.6096 26.4966 33.3412 25.7807 33.0727C25.4228 32.9832 24.9753 32.8042 24.7964 32.4463C24.6174 32.1778 24.6174 32.0884 24.7069 31.8199C24.7964 31.9094 24.8858 31.9989 25.1543 32.1778C25.1543 32.0884 25.1543 31.9989 25.2438 31.9094C25.4228 32.1778 25.7807 32.3568 26.1386 32.3568C25.9597 32.1778 25.7807 31.6409 25.9597 31.283C26.2281 31.8199 27.3914 31.9094 27.6599 31.0145C27.2125 31.1935 26.944 31.0145 26.8545 30.7461C26.765 30.3881 27.123 29.4933 26.765 28.7774C26.4966 28.2405 26.1386 27.972 25.3333 27.7931C25.4228 27.7036 25.4228 27.6141 25.4228 27.4351C24.7069 27.7036 24.0805 27.5246 23.7225 26.8982C23.9015 26.9877 24.0805 26.9877 24.2594 26.9877C23.633 26.4508 23.6331 24.9295 24.0805 24.1242C24.17 24.1242 24.17 24.0347 24.2594 24.0347C24.4384 24.3031 24.7964 24.3031 25.0648 24.5716C25.1543 24.4821 25.1543 24.4821 25.2438 24.3926C25.2438 24.3926 25.2438 25.6454 25.3333 26.1823C25.4228 26.7192 25.9597 26.7192 26.2281 26.9877C26.5861 26.6297 27.2125 26.6297 27.0335 26.0033C26.944 25.3769 26.8545 24.7506 26.765 24.3926C26.944 24.7506 27.302 26.2718 27.4809 26.6297C27.7494 27.2561 28.2863 27.0772 28.6442 27.2561C28.8232 26.8087 29.4496 26.7192 29.1812 26.0928C29.0917 25.9139 28.1968 24.0347 28.1073 23.6767C28.4653 24.1242 29.2706 25.8244 29.5391 26.2718C29.8075 26.7192 30.4339 26.5403 30.7919 26.6297C30.8814 26.2718 31.4183 25.8244 30.9709 25.2875C30.5234 24.4821 29.3601 23.0503 29.2706 22.8714C29.5391 23.0503 31.2393 25.2875 31.4183 25.4664C31.8657 25.8244 32.4026 25.5559 32.7606 25.5559C32.7606 25.1085 33.1185 24.6611 32.5816 24.2136C32.1342 23.7662 31.1498 23.1398 30.9709 22.8714C31.5973 23.3188 32.4026 24.0347 32.8501 24.1242C33.6554 24.3031 33.9239 24.0347 34.2818 23.8557C34.0134 23.1398 34.3713 22.7819 32.6711 22.066C34.1923 22.6029 34.8187 22.3344 35.3556 21.887C35.1767 21.3501 34.6398 20.9027 34.1923 20.7237C35.0872 20.7237 35.7136 20.3658 36.0715 19.8289C35.7136 19.3814 35.0872 19.0235 34.2818 18.934C35.5346 18.5761 36.4295 17.8602 36.519 17.0548ZM1.88808 22.5134C1.70911 22.5134 1.70911 22.4239 1.70911 22.245C1.7986 22.245 1.7986 22.245 1.88808 22.1555H1.7986C1.88808 22.3344 1.88808 22.4239 1.88808 22.5134ZM2.33551 23.4083L2.15654 23.3188C2.24602 23.2293 2.33551 23.2293 2.42499 23.3188C2.42499 23.3188 2.425 23.4083 2.33551 23.4083ZM2.96191 22.066C2.87242 22.066 2.87242 22.066 2.87242 22.066H2.96191ZM14.774 37.368C14.2371 37.368 13.8791 37.0101 14.1476 36.5626C14.3266 36.7416 14.595 36.8311 14.774 36.9206C14.774 37.0995 14.774 37.189 14.774 37.368ZM22.5592 36.5626C22.8277 37.0101 22.4697 37.368 21.9328 37.368C21.9328 37.189 21.9328 37.0995 21.9328 36.9206C22.2013 36.9206 22.4697 36.8311 22.5592 36.5626ZM14.774 8.91162C15.9373 8.64317 17.1006 8.01677 17.6375 7.47986C18.085 7.47986 18.6219 7.47986 19.0693 7.47986C19.6062 8.01677 20.7695 8.64317 21.9328 8.91162C21.2169 8.91162 20.0536 8.82214 19.8747 8.64317C19.8747 9.0906 20.859 9.53802 21.3959 9.717C20.859 9.80648 20.4116 9.717 20.0536 9.53802C20.2326 9.80648 20.5011 10.0749 20.859 10.1644C20.4116 10.7013 19.6062 10.9698 18.7113 10.9698C18.8903 11.2382 19.3377 11.4172 19.6062 11.3277C18.8008 12.5805 18.2639 13.8333 18.1744 15.2651C18.085 13.8333 17.4586 12.5805 16.7427 11.3277C17.1006 11.3277 17.4586 11.2382 17.6375 10.9698C16.7427 11.0593 15.9373 10.7013 15.4899 10.1644C15.8478 9.98545 16.1163 9.80648 16.2952 9.53802C15.9373 9.717 15.4899 9.80648 14.953 9.717C15.5794 9.53802 16.4742 9.0906 16.4742 8.64317C16.6532 8.91163 15.4899 8.91162 14.774 8.91162ZM4.03573 21.7975C3.94625 21.887 3.85676 21.887 3.76728 21.9765C3.85676 21.887 3.94625 21.7975 4.03573 21.7975ZM11.5525 27.2561C11.5525 27.4351 11.5525 27.5246 11.642 27.6141C10.8366 27.7036 10.4787 28.0615 10.2102 28.5984C9.7628 29.3143 10.2102 30.2092 10.1207 30.5671C10.0313 30.8356 9.7628 31.0145 9.31538 30.8356C9.49435 31.7304 10.6577 31.6409 11.0156 31.104C11.1051 31.5514 11.0156 31.9989 10.8366 32.1778C11.1946 32.1778 11.463 32.0884 11.642 31.7304C11.642 31.8199 11.642 31.9094 11.7315 31.9989C11.9105 31.9094 12.0894 31.8199 12.1789 31.6409C12.1789 31.7304 12.2684 31.9989 12.1789 32.1778C11.9999 32.2673 11.821 32.3568 11.5525 32.5358C11.1051 32.7148 10.2997 33.0727 9.85229 33.0727C9.49435 33.1622 8.86795 32.8937 8.68898 32.4463C8.51001 31.9989 8.15206 31.8199 7.79412 32.0884C7.70464 31.9989 7.52567 31.9989 7.3467 32.1778C7.3467 32.1778 7.25721 31.9094 7.07824 31.8199C7.16772 31.5514 7.07824 31.283 6.89927 31.1935C6.89927 30.6566 6.54133 30.6566 6.45184 30.5671C6.36236 30.4776 6.36236 30.2986 6.54133 30.2986C6.63081 30.2092 6.45184 30.2092 6.45184 30.2092C6.45184 30.0302 6.45184 29.7617 6.18338 29.6722L3.67779 24.5716C3.85676 24.3926 3.76728 24.1242 3.58831 24.0347V23.9452C3.67779 23.9452 3.76728 23.9452 3.76728 23.8557C4.2147 23.7662 5.02007 23.0503 5.64647 22.6029C5.37802 22.8714 4.48316 23.5872 4.03573 23.9452C3.67779 24.3031 3.76728 24.7506 3.85676 25.1085L3.94625 25.2875C4.30419 25.2875 4.8411 25.5559 5.28853 25.198C5.37802 25.1085 7.16772 22.8714 7.43618 22.6029C7.3467 22.7819 6.18338 24.2136 5.73596 25.019C5.37802 25.6454 5.91493 26.0033 6.00441 26.3613C6.45184 26.2718 6.98875 26.4508 7.25721 26.0033C7.52567 25.5559 8.42052 23.8557 8.68898 23.4083C8.59949 23.7662 7.61515 25.6454 7.61515 25.8244C7.43618 26.4508 7.97309 26.6297 8.15206 26.9877C8.51001 26.7192 9.04692 26.8982 9.31538 26.3613C9.49435 25.9139 9.85229 24.4821 10.0313 24.1242C10.0313 24.5716 9.85229 25.1085 9.7628 25.7349C9.67332 26.3613 10.2997 26.3613 10.5682 26.7192C10.8366 26.4508 11.463 26.5403 11.5525 25.9139C11.642 25.3769 11.642 24.1242 11.642 24.1242C11.7315 24.2136 11.7315 24.2136 11.821 24.3031C11.9999 24.0347 12.4474 24.0347 12.6263 23.7662C12.7158 23.7662 12.7158 23.8557 12.8053 23.8557C13.2527 24.6611 13.3422 26.1823 12.6263 26.7192C12.8053 26.7192 13.0738 26.7192 13.1633 26.6297C12.9843 27.3456 12.3579 27.5246 11.5525 27.2561ZM16.2058 34.415C15.8478 34.9519 15.4899 35.3098 15.2214 36.0257C14.774 36.0257 14.8635 35.3993 15.0424 35.1309C15.3109 34.5939 16.5637 33.8781 17.1901 33.1622C16.9216 33.6096 16.5637 33.9676 16.2058 34.415ZM17.548 35.3993C17.2796 36.3837 17.1006 37.8154 17.1901 38.4418C16.2952 37.9944 16.8322 36.2047 17.1901 35.4888C17.6375 34.415 17.9955 33.1622 18.085 32.3568C18.3534 32.9832 17.727 34.7729 17.548 35.3993ZM19.6062 38.4418C19.6957 37.8154 19.5167 36.3837 19.2483 35.3993C19.0693 34.7729 18.4429 32.9832 18.7113 32.3568C18.8008 33.1622 19.1588 34.415 19.6062 35.4888C19.9641 36.2942 20.4116 37.9944 19.6062 38.4418ZM21.7539 35.1309C21.9328 35.3993 22.0223 35.9362 21.5749 36.0257C21.3064 35.3993 21.038 34.9519 20.68 34.415C20.3221 33.9676 19.9641 33.6096 19.6957 33.1622C20.1431 33.8781 21.3959 34.5939 21.7539 35.1309ZM21.5749 27.6141C20.4116 29.8512 18.3534 31.6409 18.3534 31.5514C18.3534 31.5514 16.2952 29.7617 15.1319 27.6141C13.9686 25.3769 13.2527 21.9765 13.2527 20.2763C13.2527 18.6655 13.5212 17.9497 13.5212 17.9497C13.5212 17.9497 14.953 17.8602 16.0268 17.5022C17.0111 17.1443 17.9955 16.3389 18.3534 16.0705C18.6219 16.3389 19.6957 17.1443 20.68 17.5022C21.8433 17.8602 23.1856 17.9497 23.1856 17.9497C23.1856 17.9497 23.5436 18.6655 23.4541 20.2763C23.4541 21.9765 22.7382 25.4664 21.5749 27.6141Z" fill="#706F6F"/>
<path d="M60.4102 22.5134C61.126 22.3345 61.9314 22.245 62.7368 22.1555C63.5421 22.066 64.437 22.066 65.2424 22.066C66.1372 22.066 67.0321 22.1555 67.8374 22.3344C68.7323 22.5134 69.5377 22.7819 70.2536 23.1398C70.9694 23.4978 71.5958 24.1242 72.0433 24.84C72.4907 25.5559 72.7591 26.4508 72.7591 27.6141C72.7591 28.6879 72.5802 29.5828 72.1328 30.3881C71.6853 31.104 71.1484 31.7304 70.4325 32.2673C69.7166 32.7148 68.9113 33.0727 68.0164 33.3412C67.1216 33.5201 66.1372 33.6991 65.2424 33.6991C65.1529 33.6991 64.9739 33.6991 64.7949 33.6991C64.616 33.6991 64.3475 33.6991 64.1685 33.6991C63.9001 33.6991 63.7211 33.6991 63.5421 33.6991C63.3632 33.6991 63.1842 33.6991 63.0947 33.6096V40.321H60.5891L60.4102 22.5134ZM65.2424 24.3926C64.7949 24.3926 64.3475 24.3926 63.9001 24.3926C63.4527 24.3926 63.0947 24.4821 62.9157 24.4821V31.283C63.0052 31.283 63.0947 31.3725 63.3632 31.3725C63.5421 31.3725 63.7211 31.3725 63.9896 31.3725C64.1685 31.3725 64.437 31.3725 64.616 31.3725C64.7949 31.3725 64.9739 31.3725 65.0634 31.3725C65.6898 31.3725 66.3162 31.283 66.8531 31.1935C67.4795 31.104 68.0164 30.9251 68.4638 30.6566C68.9113 30.3881 69.3587 30.0302 69.6272 29.4933C69.8956 29.0459 70.0746 28.4195 70.0746 27.6141C70.0746 26.9877 69.8956 26.3613 69.6272 25.9139C69.3587 25.4664 69.0008 25.1085 68.4638 24.84C68.0164 24.5716 67.4795 24.3926 66.9426 24.3031C66.4057 24.3926 65.8688 24.3926 65.2424 24.3926Z" fill="#706F6F"/>
<path d="M73.3867 33.5201C73.3867 32.4463 73.5657 31.462 73.8341 30.5671C74.1026 29.6723 74.55 28.9564 75.0869 28.33C75.6238 27.7036 76.3397 27.2561 77.1451 26.8982C77.9505 26.5403 78.8453 26.4508 79.9192 26.4508C80.993 26.4508 81.9773 26.6297 82.7827 26.9877C83.5881 27.3456 84.3039 27.8825 84.8409 28.5089C85.3778 29.1353 85.8252 29.8512 86.0937 30.7461C86.3621 31.6409 86.4516 32.5358 86.4516 33.5201C86.4516 34.594 86.2726 35.5783 86.0042 36.4731C85.7357 37.368 85.2883 38.0839 84.7514 38.7103C84.2145 39.3367 83.4986 39.7841 82.6932 40.142C81.8878 40.5 80.993 40.5895 79.9192 40.5895C78.7558 40.5895 77.861 40.4105 77.0556 40.0526C76.2503 39.6946 75.5344 39.2472 74.9975 38.6208C74.4605 37.9944 74.1026 37.2785 73.8341 36.3837C73.4762 35.3993 73.3867 34.5045 73.3867 33.5201ZM75.8923 33.5201C75.8923 34.1465 75.9818 34.7729 76.0713 35.3993C76.2503 36.0257 76.4292 36.5626 76.7872 37.0101C77.1451 37.4575 77.503 37.9049 78.04 38.1734C78.5769 38.4418 79.2033 38.6208 79.9192 38.6208C82.5142 38.6208 83.8565 36.9206 83.8565 33.6096C83.8565 32.9832 83.767 32.2673 83.6775 31.7304C83.4986 31.104 83.3196 30.5671 82.9617 30.1197C82.6932 29.6723 82.2458 29.3143 81.7089 28.9564C81.172 28.6879 80.635 28.5089 79.9192 28.5089C78.5769 28.5089 77.5925 28.9564 76.9661 29.7617C76.2503 30.4776 75.8923 31.8199 75.8923 33.5201Z" fill="#706F6F"/>
<path d="M99.25 39.2472C98.6236 39.6946 97.9972 39.9631 97.1918 40.2315C96.3864 40.4105 95.5811 40.5895 94.6862 40.5895C93.5229 40.5895 92.6281 40.4105 91.8227 40.0526C91.0173 39.6946 90.3909 39.2472 89.9435 38.6208C89.4066 37.9944 89.1381 37.2785 88.8697 36.3837C88.6907 35.4888 88.5117 34.594 88.5117 33.5201C88.5117 31.283 89.0486 29.4933 90.1225 28.2405C91.1963 26.9877 92.807 26.3613 94.8652 26.3613C95.76 26.3613 96.5654 26.4508 97.1918 26.6298C97.8182 26.8087 98.4446 26.9877 98.9815 27.2562L98.3551 29.1353C97.9077 28.8669 97.3708 28.6879 96.8339 28.5984C96.297 28.4195 95.76 28.4195 95.1336 28.4195C92.3596 28.4195 91.0173 30.1197 91.0173 33.5201C91.0173 34.1465 91.1068 34.7729 91.2858 35.3993C91.4647 36.0257 91.6437 36.5626 92.0017 37.0101C92.3596 37.4575 92.807 37.8154 93.3439 38.1734C93.8808 38.4418 94.5967 38.6208 95.3126 38.6208C96.0285 38.6208 96.6549 38.5313 97.1918 38.3524C97.7287 38.1734 98.1762 37.9049 98.5341 37.6365L99.25 39.2472Z" fill="#706F6F"/>
<path d="M111.059 39.2472C110.432 39.6946 109.806 39.9631 109 40.2315C108.195 40.4105 107.39 40.5895 106.495 40.5895C105.331 40.5895 104.437 40.4105 103.631 40.0526C102.826 39.6946 102.2 39.2472 101.752 38.6208C101.215 37.9944 100.947 37.2785 100.678 36.3837C100.499 35.4888 100.32 34.594 100.32 33.5201C100.32 31.283 100.857 29.4933 101.931 28.2405C103.005 26.9877 104.616 26.3613 106.674 26.3613C107.569 26.3613 108.374 26.4508 109 26.6298C109.627 26.8087 110.253 26.9877 110.79 27.2562L110.164 29.1353C109.716 28.8669 109.179 28.6879 108.642 28.5984C108.106 28.4195 107.569 28.4195 106.942 28.4195C104.168 28.4195 102.826 30.1197 102.826 33.5201C102.826 34.1465 102.915 34.7729 103.094 35.3993C103.273 36.0257 103.452 36.5626 103.81 37.0101C104.168 37.4575 104.616 37.8154 105.153 38.1734C105.689 38.4418 106.405 38.6208 107.121 38.6208C107.837 38.6208 108.463 38.5313 109 38.3524C109.537 38.1734 109.985 37.9049 110.343 37.6365L111.059 39.2472Z" fill="#706F6F"/>
<path d="M122.694 32.5358L123.052 29.8512H122.783L121.53 32.3568L115.266 40.1421H113.477V26.7192H115.803V34.594L115.624 36.9206H115.893L117.056 34.6834L123.23 26.7192H125.11V40.1421H122.783L122.694 32.5358Z" fill="#706F6F"/>
<path d="M137.815 32.5358L138.173 29.8512H137.904L136.651 32.3568L130.387 40.1421H128.598V26.7192H130.924V34.594L130.745 36.9206H131.014L132.177 34.6834L138.352 26.7192H140.231V40.1421H137.904L137.815 32.5358Z" fill="#706F6F"/>
<path d="M74.7299 7.39037L74.9984 4.79529H74.8194L73.7456 7.2114L68.7344 15.1756H68.1975L62.9179 7.2114L61.9335 4.79529H61.7546L62.1125 7.39037V19.2024H59.9648V1.6633H61.6651L67.6606 10.6118L68.5554 12.5805H68.6449L69.4503 10.6118L75.1774 1.6633H76.9671V19.2024H74.7299V7.39037Z" fill="#706F6F" stroke="#706F6F" stroke-width="0.5592" stroke-miterlimit="10"/>
<path d="M89.9425 11.7752L90.032 10.2539H89.9425L88.8687 11.8646L82.6942 19.2024H81.4414V6.67448H83.5891V14.3702L83.4996 15.8915H83.5891L84.6629 14.3702L90.8374 6.76397H92.0902V19.2919H89.9425V11.7752Z" fill="#706F6F" stroke="#706F6F" stroke-width="0.5592" stroke-miterlimit="10"/>
<path d="M104.705 13.6543H98.5305V19.2024H96.3828V6.67448H98.5305V11.9541H104.705V6.67448H106.853V19.2024H104.705V13.6543Z" fill="#706F6F" stroke="#706F6F" stroke-width="0.5592" stroke-miterlimit="10"/>
<path d="M123.318 22.4239H121.887L121.439 19.2024H111.148V6.67448H113.296V17.5022H119.202V6.67448H121.35V17.5022H123.318V22.4239Z" fill="#706F6F" stroke="#706F6F" stroke-width="0.5592" stroke-miterlimit="10"/>
<path d="M134.595 11.7752L134.684 10.2539H134.595L133.521 11.8646L127.347 19.2024H126.094V6.67448H128.241V14.3702L128.152 15.8915H128.241L129.315 14.3702L135.49 6.76397H136.743V19.2919H134.595V11.7752Z" fill="#706F6F" stroke="#706F6F" stroke-width="0.5592" stroke-miterlimit="10"/>
<path d="M147.124 19.2919C146.856 19.3814 146.498 19.4709 146.14 19.4709C145.782 19.4709 145.513 19.4709 145.245 19.4709C143.545 19.4709 142.292 18.934 141.397 17.8602C140.502 16.7863 140.055 15.1756 140.055 12.849C140.055 10.7013 140.502 9.09059 141.486 8.01677C142.471 6.94294 143.903 6.40603 145.782 6.40603C146.319 6.40603 146.766 6.40603 147.124 6.49551V1.6633H149.182V6.585C149.54 6.49551 149.809 6.49551 150.077 6.49551C150.346 6.49551 150.614 6.49551 150.793 6.49551C152.583 6.49551 153.925 6.94294 154.82 7.92728C155.715 8.91162 156.162 10.5224 156.162 12.67C156.162 13.7438 156.073 14.6387 155.804 15.5335C155.536 16.3389 155.178 17.0548 154.73 17.6812C154.283 18.3076 153.656 18.755 153.03 19.0235C152.314 19.3814 151.598 19.4709 150.703 19.4709C150.524 19.4709 150.256 19.4709 149.988 19.4709C149.63 19.4709 149.451 19.3814 149.182 19.2919V24.2136H147.124V19.2919ZM145.782 17.8602C145.961 17.8602 146.229 17.8602 146.408 17.8602C146.587 17.8602 146.856 17.7707 147.124 17.7707V8.19574C146.945 8.19574 146.677 8.10625 146.498 8.10625C146.319 8.10625 146.05 8.10625 145.782 8.10625C144.618 8.10625 143.813 8.46419 143.187 9.26956C142.56 10.0749 142.202 11.2382 142.202 12.9385C142.202 13.6544 142.292 14.2807 142.381 14.9071C142.471 15.5335 142.739 16.0705 143.008 16.5179C143.276 16.9653 143.634 17.3233 144.082 17.5917C144.618 17.7707 145.155 17.8602 145.782 17.8602ZM150.346 8.10625C150.167 8.10625 149.898 8.10625 149.719 8.10625C149.54 8.10625 149.361 8.19574 149.093 8.19574V17.7707C149.272 17.7707 149.451 17.8602 149.719 17.8602C149.988 17.8602 150.167 17.8602 150.435 17.8602C151.598 17.8602 152.493 17.4127 153.03 16.5179C153.656 15.623 153.925 14.3702 153.925 12.67C153.925 11.2382 153.656 10.1644 153.12 9.35905C152.672 8.55368 151.777 8.10625 150.346 8.10625Z" fill="#706F6F" stroke="#706F6F" stroke-width="0.5592" stroke-miterlimit="10"/>
<path d="M159.562 6.67449H161.083L161.531 8.19575H161.62C162.068 7.56935 162.605 7.12192 163.231 6.85346C163.857 6.58501 164.663 6.40604 165.468 6.40604C167.258 6.40604 168.6 6.94295 169.495 7.92729C170.39 8.91163 170.837 10.5224 170.837 12.7595C170.837 13.8333 170.658 14.7282 170.39 15.623C170.121 16.4284 169.674 17.1443 169.137 17.7707C168.6 18.3971 167.974 18.8445 167.168 19.113C166.363 19.4709 165.558 19.5604 164.573 19.5604C163.857 19.5604 163.41 19.5604 162.963 19.4709C162.605 19.3814 162.157 19.2919 161.71 19.113V24.3031H159.473L159.562 6.67449ZM165.021 8.10626C164.126 8.10626 163.321 8.28523 162.784 8.73266C162.247 9.18009 161.889 9.80648 161.62 10.7908V17.0548C161.978 17.3233 162.336 17.5022 162.694 17.5917C163.142 17.6812 163.678 17.7707 164.394 17.7707C165.647 17.7707 166.631 17.3233 167.347 16.5179C168.063 15.623 168.421 14.3702 168.421 12.7595C168.421 12.0436 168.332 11.4172 168.242 10.8803C168.153 10.3434 167.884 9.80648 167.616 9.44854C167.347 9.0906 166.989 8.73266 166.542 8.55369C166.274 8.19575 165.737 8.10626 165.021 8.10626Z" fill="#706F6F" stroke="#706F6F" stroke-width="0.5592" stroke-miterlimit="10"/>
<path d="M176.476 11.4172C176.923 11.3277 177.371 11.3277 177.729 11.2383C178.087 11.2383 178.534 11.2383 178.892 11.2383C179.787 11.2383 180.592 11.3277 181.219 11.5067C181.845 11.6857 182.382 11.9541 182.74 12.3121C183.098 12.67 183.366 13.028 183.545 13.4754C183.724 13.9228 183.814 14.4597 183.814 14.9072C183.814 16.4284 183.366 17.5022 182.471 18.2181C181.576 18.934 180.055 19.2919 177.997 19.2919C176.834 19.2919 175.581 19.2025 174.328 19.113V6.58501H176.476V11.4172ZM176.476 17.4127C177.192 17.5022 177.818 17.5917 178.444 17.5917C179.608 17.5917 180.413 17.4127 180.861 16.9653C181.308 16.5179 181.576 15.981 181.576 15.2651C181.576 14.6387 181.397 14.0123 180.95 13.5649C180.503 13.1174 179.697 12.9385 178.623 12.9385C178.355 12.9385 177.997 12.9385 177.639 12.9385C177.281 12.9385 176.923 13.028 176.655 13.1174V17.4127H176.476ZM185.961 6.67449H188.109V19.2025H185.961V6.67449Z" fill="#706F6F" stroke="#706F6F" stroke-width="0.5592" stroke-miterlimit="10"/>
</g>
</g>
<defs>
<clipPath id="clip0_239_1805">
<rect width="188.188" height="40" fill="white" transform="translate(0.1875 0.5)"/>
</clipPath>
</defs>
</svg>
